<svg xmlns="http://www.w3.org/2000/svg" viewBox="0 0 1536 1024" fill="none">
  <g fill="#3f452b">
    <path d="M-80 142C116 175 250 268 391 370c111 80 206 126 338 154" fill="none" stroke="#3f452b" stroke-linecap="round" stroke-width="22"/>
    <path d="M160 219c-4 97 12 164 48 217M300 310c-3-79 13-141 47-187M433 405c21-69 58-122 111-160M557 480c-1-62 15-111 47-149" fill="none" stroke="#3f452b" stroke-linecap="round" stroke-width="10"/>
    <path d="M154 231c-55-28-104-33-148-17 36 43 82 62 138 57 18-2 25-18 10-40ZM180 266c-36 32-52 72-47 121 48-19 77-52 86-100 3-18-14-30-39-21ZM286 300c-61-8-108 4-143 36 47 28 94 29 141 4 17-9 18-26 2-40ZM333 333c-29-53-31-103-6-148 39 34 54 75 46 123-3 18-19 28-40 25ZM413 393c-55-24-100-22-136 5 33 37 76 48 126 34 18-5 22-23 10-39ZM451 421c8-54 33-97 75-129 17 48 9 91-25 128-13 15-32 16-50 1ZM548 457c-47-5-85 8-113 39 38 24 76 22 114-4 13-9 13-25-1-35ZM584 493c-4-47 10-85 42-116 25 39 25 77 2 114-9 14-27 15-44 2ZM666 505c-41 3-73 20-95 52 36 13 68 5 96-24 11-11 10-23-1-28Z"/>
  </g>
</svg>
